# xmcd
#
# Track frame offsets:
#        150
#        15890
#        28425
#        48952
#        66447
#        84205
#        103655
#        118940
#        141140
#        158980
#        178470
#        198510
#        217780
#        233872
#
# Disc length: 3302 seconds
#
# Revision: 4
# Processed by: cddbd v1.5PL3 Copyright (c) Steve Scherf et al.
# Submitted via: ExactAudioCopy v0.95a3
#
DISCID=c30ce40e
DTITLE=Schoolly D - Smoke Some Kill
DYEAR=1988
DGENRE=Rap
TTITLE0=Smoke Some Kill
TTITLE1=Here We Go Again
TTITLE2=Mr. Big Dick
TTITLE3=Gangster Boogie II
TTITLE4=This Is It (Ain't Gonna Rain)]
TTITLE5=Another Poem
TTITLE6=We Don't Rock, We Rap
TTITLE7=Signifying Rapper [Led Zeppelin cover]
TTITLE8=No More Rock N' Roll
TTITLE9=Same White Bitch (Got You Strung Out On Cane)
TTITLE10=Treacherous
TTITLE11=Black Man
TTITLE12=Coqui 900
TTITLE13=Fat Gold Chain
EXTD=
EXTT0=
EXTT1=
EXTT2=
EXTT3=
EXTT4=
EXTT5=
EXTT6=
EXTT7=
EXTT8=
EXTT9=
EXTT10=
EXTT11=
EXTT12=
EXTT13=
PLAYORDER=
